ModelForces
version=1
nRows=4
nColumns=155
inDegrees=no

This file contains the forces exerted on a model during a simulation.

A force is a generalized force, meaning that it can be either a force (N) or a torque (Nm).

Units are S.I. units (second, meters, Newtons, ...)
Angles are in degrees.

endheader
time	glut_med1_r	glut_med2_r	glut_med3_r	glut_min1_r	glut_min2_r	glut_min3_r	semimem_r	semiten_r	bifemlh_r	bifemsh_r	sar_r	add_long_r	add_brev_r	add_mag1_r	add_mag2_r	add_mag3_r	tfl_r	pect_r	grac_r	glut_max1_r	glut_max2_r	glut_max3_r	iliacus_r	psoas_r	quad_fem_r	gem_r	peri_r	rect_fem_r	vas_med_r	vas_int_r	vas_lat_r	med_gas_r	lat_gas_r	soleus_r	tib_post_r	flex_dig_r	flex_hal_r	tib_ant_r	per_brev_r	per_long_r	per_tert_r	ext_dig_r	ext_hal_r	glut_med1_l	glut_med2_l	glut_med3_l	glut_min1_l	glut_min2_l	glut_min3_l	semimem_l	semiten_l	bifemlh_l	bifemsh_l	sar_l	add_long_l	add_brev_l	add_mag1_l	add_mag2_l	add_mag3_l	tfl_l	pect_l	grac_l	glut_max1_l	glut_max2_l	glut_max3_l	iliacus_l	psoas_l	quad_fem_l	gem_l	peri_l	rect_fem_l	vas_med_l	vas_int_l	vas_lat_l	med_gas_l	lat_gas_l	soleus_l	tib_post_l	flex_dig_l	flex_hal_l	tib_ant_l	per_brev_l	per_long_l	per_tert_l	ext_dig_l	ext_hal_l	ercspn_r	ercspn_l	intobl_r	intobl_l	extobl_r	extobl_l	femur_lat_meniscii_r.femur_lat_r.force.X	femur_lat_meniscii_r.femur_lat_r.force.Y	femur_lat_meniscii_r.femur_lat_r.force.Z	femur_lat_meniscii_r.femur_lat_r.torque.X	femur_lat_meniscii_r.femur_lat_r.torque.Y	femur_lat_meniscii_r.femur_lat_r.torque.Z	femur_lat_meniscii_r.meniscus_lat_r.force.X	femur_lat_meniscii_r.meniscus_lat_r.force.Y	femur_lat_meniscii_r.meniscus_lat_r.force.Z	femur_lat_meniscii_r.meniscus_lat_r.torque.X	femur_lat_meniscii_r.meniscus_lat_r.torque.Y	femur_lat_meniscii_r.meniscus_lat_r.torque.Z	femur_med_meniscii_r.femur_med_r.force.X	femur_med_meniscii_r.femur_med_r.force.Y	femur_med_meniscii_r.femur_med_r.force.Z	femur_med_meniscii_r.femur_med_r.torque.X	femur_med_meniscii_r.femur_med_r.torque.Y	femur_med_meniscii_r.femur_med_r.torque.Z	femur_med_meniscii_r.meniscus_med_r.force.X	femur_med_meniscii_r.meniscus_med_r.force.Y	femur_med_meniscii_r.meniscus_med_r.force.Z	femur_med_meniscii_r.meniscus_med_r.torque.X	femur_med_meniscii_r.meniscus_med_r.torque.Y	femur_med_meniscii_r.meniscus_med_r.torque.Z	femur_med_tibia_r.tibia_upper_r.force.X	femur_med_tibia_r.tibia_upper_r.force.Y	femur_med_tibia_r.tibia_upper_r.force.Z	femur_med_tibia_r.tibia_upper_r.torque.X	femur_med_tibia_r.tibia_upper_r.torque.Y	femur_med_tibia_r.tibia_upper_r.torque.Z	femur_med_tibia_r.femur_med_r.force.X	femur_med_tibia_r.femur_med_r.force.Y	femur_med_tibia_r.femur_med_r.force.Z	femur_med_tibia_r.femur_med_r.torque.X	femur_med_tibia_r.femur_med_r.torque.Y	femur_med_tibia_r.femur_med_r.torque.Z	femur_lat_tibia_r.tibia_upper_r.force.X	femur_lat_tibia_r.tibia_upper_r.force.Y	femur_lat_tibia_r.tibia_upper_r.force.Z	femur_lat_tibia_r.tibia_upper_r.torque.X	femur_lat_tibia_r.tibia_upper_r.torque.Y	femur_lat_tibia_r.tibia_upper_r.torque.Z	femur_lat_tibia_r.femur_lat_r.force.X	femur_lat_tibia_r.femur_lat_r.force.Y	femur_lat_tibia_r.femur_lat_r.force.Z	femur_lat_tibia_r.femur_lat_r.torque.X	femur_lat_tibia_r.femur_lat_r.torque.Y	femur_lat_tibia_r.femur_lat_r.torque.Z	aACL_R	pACL_R	aPCL_R	pPCL_R	aMCL_R	mMCL_R	pMCL_R	aLCL_R	mLCL_R	pLCL_R	aPCL_L	pPCL_L	aMCL_L	aLCL_L
      0.20364175	      9.88873126	      7.26893211	      7.80494460	      3.37547689	      3.95708379	      4.18089938	      0.00000000	    165.32819770	    162.64702142	    324.72467093	    124.53759218	      7.22279039	      5.24547640	      3.73855756	      3.16167268	      5.26846287	      3.94647610	      2.84652138	     94.16526825	      4.69139770	      7.13441465	      5.34934048	     25.56897999	     16.27516623	      4.62818963	      3.33046614	      5.66535016	    106.41660797	     40.20593534	     31.63510468	     53.15265635	      0.00000000	      0.00000000	      0.00000000	      0.00000000	      0.00000000	      0.00000000	     31.06062957	      4.66804956	      7.81321049	     20.51361875	     48.86182455	     12.63639960	      9.88873126	      7.26893211	      7.80494460	      3.37547689	      3.95708379	      4.18089938	     10.42576923	      5.33724687	     10.46388013	      9.21049616	      1.92716163	      7.22279039	      5.24547640	      3.73855756	      3.16167268	      5.26846287	      4.89024959	      2.84652138	      1.98482630	      4.69139770	      7.13441465	      5.34934048	     25.56897999	     16.27516623	      4.62818963	      3.33046614	      5.66535016	     14.48372172	      0.00000000	      0.00000000	      0.00000000	     19.61341392	      9.17127158	     43.84739612	     47.65733515	      4.35693680	      3.80235748	     11.34188699	      6.00967910	     16.07980839	      2.51743050	      7.95240614	      2.54427811	     31.76278885	     31.76278885	     11.67313673	     11.67313673	     29.20951263	     29.20951263	     42.81376545	     28.16829159	      0.80783562	     -0.96114452	      0.98049653	     16.98392525	    -42.81376545	    -28.16829159	     -0.80783562	      0.71262019	     -1.10724504	      0.60696922	      0.38115567	     -0.00424017	     -0.11662154	      0.04635212	     -0.00625744	      0.15170898	     -0.38115567	      0.00424017	      0.11662154	     -0.00048998	      0.00842693	     -0.00189601	   -975.57017160	   -418.92730430	    313.74957064	     -9.55800886	     23.26254587	      1.59164553	    975.57017160	    418.92730430	   -313.74957064	    133.99969293	    -17.30336999	    393.30309909	   -307.20733497	   -155.07442749	    -83.20634703	      4.98379432	    -10.48935271	      1.16076679	    307.20733497	    155.07442749	     83.20634703	    -37.33149016	      7.51799634	    123.80843555	      0.00000000	      0.00000000	    942.36388928	    588.84625644	     28.43250174	      0.00000000	      0.00000000	      0.00000000	      0.00000000	      0.00000000	      0.00000000	      0.00000000	      0.00000001	      0.00000000
      0.20419946	      9.87167918	      7.25727080	      7.79226888	      3.37028908	      3.95142950	      4.17368160	      0.00000000	    165.33386183	    163.43789857	    325.30476297	    124.41532614	      7.21106669	      5.23748952	      3.73262033	      3.15650811	      5.25909686	      3.92557307	      2.84211626	     94.08580301	      4.68385432	      7.12291331	      5.34057131	     25.54762408	     16.25086576	      4.62091999	      3.32696211	      5.65647713	     80.56770864	     40.35926921	     29.26089164	     53.31824695	      0.00000000	      0.00000000	      0.00000000	      0.00000000	      0.00000000	      0.00000000	     30.84640356	      4.68696880	      7.89700308	     20.44542300	     48.65709129	     12.54977197	      9.87167918	      7.25727080	      7.79226888	      3.37028908	      3.95142950	      4.17368160	     10.44699985	      5.32808593	     10.44414663	      9.19601508	      1.92421358	      7.21106669	      5.23748952	      3.73262033	      3.15650811	      5.25909686	      4.88445464	      2.84211626	      1.98173639	      4.68385432	      7.12291331	      5.34057131	     25.54762408	     16.25086576	      4.62091999	      3.32696211	      5.65647713	     14.45616908	      0.00000000	      0.00000000	      0.00000000	     19.58679874	      9.15794010	     43.76356432	     47.62017801	      4.33995624	      3.78641816	     11.32099031	      5.99782133	     16.05556305	      2.51368166	      7.94475252	      2.54216274	     31.71386099	     31.71386099	     11.65363181	     11.65363181	     29.19191950	     29.19191950	     42.87587351	     28.65987912	      0.72378453	     -0.93871198	      0.98126977	     16.99949764	    -42.87587351	    -28.65987912	     -0.72378453	      0.72497686	     -1.10687818	      0.63558736	      0.34110325	     -0.00104540	     -0.10896644	      0.04333124	     -0.00556145	      0.13571552	     -0.34110325	      0.00104540	      0.10896644	     -0.00045992	      0.00762504	     -0.00153300	   -977.95362356	   -418.48213435	    314.56088308	     -9.48182209	     23.29522548	      1.75649763	    977.95362356	    418.48213435	   -314.56088308	    134.28627411	    -17.32145010	    394.20145854	   -313.55220090	   -158.13579275	    -84.79279997	      5.06711959	    -10.71327172	      1.25004905	    313.55220090	    158.13579275	     84.79279997	    -38.03767829	      7.67224074	    126.34199995	      0.00000000	      0.00000000	    946.58542453	    591.78818407	     27.18410991	     11.17961655	      0.00000000	      0.00000000	      0.00000000	      0.00000000	      0.00000000	      0.00000000	      0.00000001	      0.00000000
      0.20475717	      9.85475084	      7.24569534	      7.77968669	      3.36513917	      3.94581679	      4.16651723	      0.00000000	    165.39638599	    164.25880417	    326.08576256	    124.32722265	      7.19942951	      5.22956086	      3.72672422	      3.15138175	      5.24980020	      3.90410308	      2.83774338	     94.03897237	      4.67636667	      7.11149693	      5.33186703	     25.52642690	     16.22674693	      4.61370368	      3.32348439	      5.64762014	     95.90417391	     40.53874596	     30.76497197	     53.49597954	      0.00000000	      0.00000000	      0.00000000	      0.00000000	      0.00000000	      0.00000000	     30.64617811	      4.70140568	      7.97607714	     20.37519341	     48.43477596	     12.46576174	      9.85475084	      7.24569534	      7.77968669	      3.36513917	      3.94581679	      4.16651723	     10.46680605	      5.31899284	     10.42454666	      9.18164031	      1.92128705	      7.19942951	      5.22956086	      3.72672422	      3.15138175	      5.24980020	      4.87870245	      2.83774338	      1.97866912	      4.67636667	      7.11149693	      5.33186703	     25.52642690	     16.22674693	      4.61370368	      3.32348439	      5.64762014	     14.42881565	      0.00000000	      0.00000000	      0.00000000	     19.56016596	      9.14461444	     43.68019905	     47.58327297	      4.32299313	      3.77057531	     11.30024291	      5.98604608	     16.03146863	      2.50996075	      7.93708786	      2.54002819	     31.66529072	     31.66529072	     11.63427118	     11.63427118	     29.17445737	     29.17445737	     43.29043234	     28.12438483	      0.61195143	     -0.88154089	      0.98939847	     17.16953992	    -43.29043234	    -28.12438483	     -0.61195143	      0.71100715	     -1.11400565	      0.62105517	      0.32430267	     -0.00303349	     -0.10447775	      0.04151949	     -0.00529575	      0.12902363	     -0.32430267	      0.00303349	      0.10447775	     -0.00040729	      0.00728067	     -0.00146752	   -983.18040043	   -410.05551460	    316.79001041	     -9.33299599	     23.41059696	      1.57864273	    983.18040043	    410.05551460	   -316.79001041	    135.03868258	    -17.39168189	    396.34885638	   -320.26396284	   -156.24189525	    -86.52909003	      5.03630051	    -10.95179193	      1.13854778	    320.26396284	    156.24189525	     86.52909003	    -38.70132402	      7.83565248	    129.09008826	      0.00000000	      0.00000000	    950.14689418	    592.76255683	     27.37184361	     11.18927963	      0.00000000	      0.00000000	      0.00000000	      0.00000000	      0.00000000	      0.00000000	      0.00000001	      0.00000000
      0.20577400	      9.82420235	      7.22480950	      7.75698492	      3.35584630	      3.93568949	      4.15359107	      0.00000000	    165.62591324	    165.82571840	    327.76178497	    124.22195134	      7.17843279	      5.21525355	      3.71607994	      3.14213264	      5.23302706	      3.86649535	      2.82985281	     94.00676674	      4.66285698	      7.09089881	      5.31616256	     25.48818416	     16.18323568	      4.60068269	      3.31721074	      5.63151592	    105.97473159	     40.82427800	     32.45631561	     53.77855320	      0.00000000	      0.00000000	      0.00000000	      0.00000000	      0.00000000	      0.00000000	     30.31259994	      4.71600835	      8.10784046	     20.24239852	     47.97939761	     12.31992925	      9.82420235	      7.22480950	      7.75698492	      3.35584630	      3.93568949	      4.15359107	     10.49944900	      5.30258700	     10.38915282	      9.15570281	      1.91600615	      7.17843279	      5.21525355	      3.71607994	      3.14213264	      5.23302706	      4.86832388	      2.82985281	      1.97313447	      4.66285698	      7.09089881	      5.31616256	     25.48818416	     16.18323568	      4.60068269	      3.31721074	      5.63151592	     14.37945208	      0.00000000	      0.00000000	      0.00000000	     19.51157400	      9.12033827	     43.52940439	     47.51663063	      4.29211623	      3.74194582	     11.26279666	      5.96478775	     15.98792521	      2.50324789	      7.92307821	      2.53608610	     31.57764757	     31.57764757	     11.59934011	     11.59934011	     29.14295380	     29.14295380	     42.80147101	     28.79452973	      0.87071778	     -1.00282093	      0.98000841	     16.95608716	    -42.80147101	    -28.79452973	     -0.87071778	      0.73304592	     -1.11206396	      0.67217916	      0.27865856	     -0.00176197	     -0.09349274	      0.03716368	     -0.00455446	      0.11082185	     -0.27865856	      0.00176197	      0.09349274	     -0.00035210	      0.00635909	     -0.00113759	   -987.16219482	   -404.40801247	    320.39109714	     -9.16846557	     23.54737773	      1.70506330	    987.16219482	    404.40801247	   -320.39109714	    136.36039019	    -17.44486830	    397.89081912	   -328.79495092	   -157.46927396	    -87.88660353	      5.06248464	    -11.22784520	      1.18481111	    328.79495092	    157.46927396	     87.88660353	    -39.27115576	      8.03169934	    132.52081227	      0.00000000	      0.00000000	    958.12466723	    599.13473541	     27.23971407	     11.50274292	      0.00000000	      0.00000000	      0.00000000	      0.00000000	      0.00000000	      0.00000000	      0.00000001	      0.00000000
